<?xml version="1.0" encoding="UTF-8" standalone="no"?>
<!-- Created with Inkscape (http://www.inkscape.org/) -->

<svg
   width="453.79608mm"
   height="124.7998mm"
   viewBox="0 0 453.79608 124.79979"
   version="1.1"
   id="svg1"
   inkscape:version="1.3.2 (091e20e, 2023-11-25, custom)"
   sodipodi:docname="skyline_sp_crop.svg"
   xmlns:inkscape="http://www.inkscape.org/namespaces/inkscape"
   xmlns:sodipodi="http://sodipodi.sourceforge.net/DTD/sodipodi-0.dtd"
   xmlns="http://www.w3.org/2000/svg"
   xmlns:svg="http://www.w3.org/2000/svg">
  <sodipodi:namedview
     id="namedview1"
     pagecolor="#ffffff"
     bordercolor="#000000"
     borderopacity="0.25"
     inkscape:showpageshadow="2"
     inkscape:pageopacity="0.0"
     inkscape:pagecheckerboard="0"
     inkscape:deskcolor="#d1d1d1"
     inkscape:document-units="mm"
     inkscape:zoom="1.0877315"
     inkscape:cx="212.82826"
     inkscape:cy="258.79549"
     inkscape:window-width="2497"
     inkscape:window-height="1417"
     inkscape:window-x="55"
     inkscape:window-y="-8"
     inkscape:window-maximized="1"
     inkscape:current-layer="layer1" />
  <defs
     id="defs1">
    <clipPath
       clipPathUnits="userSpaceOnUse"
       id="clipPath1">
      <rect
         style="fill:#000000;fill-opacity:0.291747;stroke-width:0.264583"
         id="rect2"
         width="459.7468"
         height="128.93494"
         x="-115.13209"
         y="61.746078" />
    </clipPath>
  </defs>
  <g
     inkscape:label="Layer 1"
     inkscape:groupmode="layer"
     id="layer1"
     transform="translate(109.53749,-65.881214)">
    <path
       d="m 101.5905,188.46797 c 1.53423,0 2.21333,1.58397 2.42781,2.23309 h -7.123285 l 0.0134,-2.21192 c 1.923345,-0.004 3.842105,-0.0212 4.682075,-0.0212 z m 44.39708,-50.83528 2.73791,13.15861 -23.31649,32.73778 c -5.59259,-0.22577 -11.17565,-0.40216 -16.16957,-0.54327 z m 3.55988,17.10972 v 2.17312 l -10.68634,27.25914 c -4.11551,-0.23989 -8.5217,-0.4445 -12.93354,-0.62442 l 22.91856,-32.17686 z m 1.6002,-10.39283 c -0.74048,0.11994 -1.16557,0.26106 -1.16557,0.26106 l -1.07633,-5.37987 z m 1.72897,2.28953 c 1.73708,-0.43745 2.89489,0.72319 2.89489,0.72319 l -1.88207,6.80156 h -1.44744 l -1.30246,-7.09083 z m 5.15408,-8.16328 -1.10172,6.42408 c 0,0 -1.26648,-0.57502 -2.97639,-0.6985 z m 2.87761,-1.40406 22.9422,52.36987 c -3.7077,-0.5327 -8.33261,-1.18533 -13.2902,-1.86267 l -13.73717,-31.35842 0.10584,-1.47814 z m 23.27381,53.62929 h -15.25976 l -0.73554,-2.0567 c 0.84279,0.0882 1.6697,0.17286 2.48144,0.26106 l 0.49777,0.0564 c 5.1047,0.55386 9.54828,1.08656 13.01609,1.524 z m -47.879,0 h -22.20066 c 0.57996,-0.26812 1.08761,-0.52564 1.28623,-0.69145 0.57926,-0.47978 3.4738,-2.31422 4.92089,-2.6035 1.4478,-0.28928 2.70193,-1.83444 2.70193,-1.83444 4.9784,0.1023 10.04887,0.31397 15.06714,0.59972 z m 16.28387,-1.50989 c 5.73863,0.0741 8.85155,0.8008 10.53006,1.50989 h -20.64561 c 1.99072,-0.84314 5.15232,-1.57339 10.11555,-1.50989 z m 5.0673,-29.98964 12.40225,28.30689 c -0.79057,-0.10936 -1.5882,-0.2152 -2.39148,-0.32456 z m 4.63056,27.38261 -17.94792,-1.44639 7.52686,-25.908 2.31528,0.14464 z m -265.74822,4.11692 h -6.07413 v 18.34091 h 453.79607 v -18.34091 h -8.75241 v -74.71129 l -2.24014,0.16228 -1.28411,-0.16228 -4.16278,-0.63852 c 0,0 -13.13039,-1.12184 -13.61017,-1.12184 -0.47978,0 -2.56116,-1.12183 -2.56116,-1.12183 l -1.28059,1.60161 -8.80886,0.47978 -4.64256,1.44286 v 37.95183 h -3.24908 V 75.709604 l -5.47158,-2.187223 -11.48998,0.818445 -4.92125,-1.912056 -31.73236,1.36525 0.27517,1.915584 -18.60198,1.368778 v 84.716058 l -4.73075,2.19781 v 11.06311 c -0.62794,-0.28928 -1.34408,-0.68086 -1.45697,-1.01247 -0.20108,-0.60678 0,-52.59564 0,-52.59564 l -4.04636,-1.41817 v -14.96836 l -1.61572,-0.4057 v -3.23497 l -5.46453,-3.640667 v -8.293806 l -2.2225,-2.631722 -1.01247,-18.002252 -0.10231,2.966862 -0.0988,-2.966862 -1.01247,18.002252 -2.22603,2.631722 v 8.293806 l -5.461,3.640667 v 3.23497 l -1.61925,0.4057 v 14.96836 l -4.04636,1.41817 c 0,0 0.20461,51.98886 0,52.59564 -0.20108,0.60678 -2.42711,1.41464 -2.42711,1.41464 v 13.65955 l -23.1133,-52.76144 0.78141,-3.46781 -3.18418,1.88031 -0.46672,2.72344 -4.76321,6.68867 c -0.042,-0.004 -0.0829,-0.004 -0.12523,-0.004 -0.65546,0 -1.23367,0.0459 -1.71803,0.10583 l -3.08504,-7.04144 -0.40746,-2.03906 -3.03989,-2.02494 0.81316,3.90525 -37.12563,45.82231 0.0896,0.0705 c -4.6616,-0.127 -8.78452,-0.22225 -11.893196,-0.28575 l 0.355247,-57.912 H 86.924466 v -0.635 c 0,0 1.83515,-0.56797 1.83515,-1.13242 0,-0.4833 -6.13022,-0.44803 -7.869414,-0.42686 -1.738489,-0.0212 -7.869062,-0.0564 -7.869062,0.42686 0,0.56445 1.835503,1.13242 1.835503,1.13242 v 0.635 H 64.481095 l 0.276225,45.00386 H 60.733537 V 105.7698 l -2.11702,-0.14111 -0.141111,0.98778 h -0.564445 v -0.84667 l -3.246261,-1.12889 -29.501396,0.70556 -0.140759,1.41111 h -0.706261 l -0.282222,-0.84667 -2.11702,0.56445 c 0,0 -0.243416,50.17911 -0.360538,74.66894 H 16.678998 V 87.855744 c -0.837495,-1.075973 -3.588809,-0.839612 -3.588809,-0.839612 v -6.459361 h 1.076678 l -0.837495,-1.55575 -9.0921418,-2.032 -4.50673639,1.192389 c 0,-1.943806 0,-4.46264 0,-4.46264 L 0.36902163,73.060243 V 71.465687 L -0.34888119,70.74602 v -4.706056 l -0.63817504,-0.15875 v 4.945945 H -2.1032452 -2.662398 -3.7778814 v -4.945945 l -0.6378223,0.15875 v 4.706056 l -0.7182556,0.719667 v 1.594556 l 0.6381751,0.638527 c 0,0 0,3.690056 0,5.580945 l -5.7425168,1.516945 c 0,0 -0.837848,1.075972 -1.794228,1.435805 -0.957792,0.359834 -2.034823,1.675695 -3.111148,2.511778 -1.076677,0.836084 -0.119591,4.667251 -0.478719,5.38339 -0.359128,0.719666 0.359128,1.915583 0.359128,1.915583 0,0 0.135114,57.079444 0.101247,86.423504 h -4.484864 v -42.52031 l -7.622117,-2.68111 -5.363634,-0.14111 v 2.25778 c 0,0 -2.823281,0 -3.246614,2.12019 h -2.399595 l -0.846666,1.26648 v 3.95463 h -3.246262 v 33.13642 h -2.354792 v -21.73816 h -2.82328 v -2.96687 h -2.257778 v -2.54 h -1.129947 v -2.54 l -0.48507,-0.48683 v -0.5715 h 0.520347 v -1.11125 h -0.635353 l -4.89585,-4.89656 h -3.30835 l -5.505098,4.73781 h -0.899936 c 0,0 -0.05292,1.05833 0,1.05833 0.05327,0 0.847372,0 0.847372,0 v 0.89959 h -1.747308 v 2.80458 h -1.058686 v 24.16881 h -2.918884 v -27.49198 h -2.964039 V 141.799 h -1.270705 v -0.84667 h -1.693687 v 0.98778 h -1.411111 v 2.96333 h -2.540705 v -5.22111 h -1.835503 v -0.70556 h -1.55187 v 0.56445 h -2.541058 -0.423687 -2.540705 v -0.56445 h -1.552575 v 0.70556 h -1.83515 v 5.22111 h -2.540706 v -2.96333 h -1.411111 v -0.98778 h -1.694039 v 0.84667 h -1.270703 v 3.38666 h -2.96334 v 41.28206 l -0.39828,4.23334"
       style="fill:#14232e;fill-opacity:1;fill-rule:nonzero;stroke:none;stroke-width:0.0352778"
       id="path260"
       clip-path="url(#clipPath1)" />
  </g>
</svg>
